<svg width="31" height="31" viewBox="0 0 31 31" fill="none" xmlns="http://www.w3.org/2000/svg">
<path d="M26.4602 4.53981C23.5327 1.61224 19.6402 0 15.5 0C11.3598 0 7.4674 1.61224 4.5398 4.53981C1.6122 7.4674 0 11.3598 0 15.5C0 19.6402 1.6123 23.5326 4.5398 26.4602C7.4673 29.3879 11.3598 31 15.5 31C19.6402 31 23.5327 29.3878 26.4602 26.4602C29.3878 23.5327 31 19.6402 31 15.5C31 11.3598 29.3877 7.4674 26.4602 4.53981Z" fill="#269970"/>
<mask id="mask0_2_3" style="mask-type:luminance" maskUnits="userSpaceOnUse" x="5" y="5" width="22" height="22">
<path d="M26.5691 5.31212H5.31192V26.5693H26.5691V5.31212Z" fill="white"/>
</mask>
<g mask="url(#mask0_2_3)">
<path d="M15.9427 6.2001V25.6858" stroke="white" stroke-width="1.75" stroke-linecap="round" stroke-linejoin="round"/>
</g>
<mask id="mask1_2_3" style="mask-type:luminance" maskUnits="userSpaceOnUse" x="5" y="5" width="22" height="22">
<path d="M26.5691 5.31212H5.31192V26.5693H26.5691V5.31212Z" fill="white"/>
</mask>
<g mask="url(#mask1_2_3)">
<path d="M20.3716 9.74289H13.7287C12.9065 9.74289 12.1181 10.0696 11.5368 10.6509C10.9553 11.2323 10.6288 12.0208 10.6288 12.8429C10.6288 13.6651 10.9553 14.4536 11.5368 15.035C12.1181 15.6163 12.9065 15.943 13.7287 15.943H18.1573C18.9795 15.943 19.7679 16.2695 20.3494 16.8509C20.9307 17.4322 21.2573 18.2207 21.2573 19.043C21.2573 19.8651 20.9307 20.6536 20.3494 21.2349C19.7679 21.8163 18.9795 22.1429 18.1573 22.1429H10.6288" stroke="white" stroke-width="1.75" stroke-linecap="round" stroke-linejoin="round"/>
</g>
</svg>
