<svg width="190" height="42" viewBox="0 0 190 42" fill="none" xmlns="http://www.w3.org/2000/svg">
<g clip-path="url(#clip0_2_2)">
<mask id="mask0_2_2" style="mask-type:luminance" maskUnits="userSpaceOnUse" x="0" y="0" width="190" height="42">
<path d="M190 0H0V42H190V0Z" fill="white"/>
</mask>
<g mask="url(#mask0_2_2)">
<path d="M29.4602 11.5398C26.5327 8.61224 22.6402 7 18.5 7C14.3598 7 10.4674 8.61224 7.5398 11.5398C4.6122 14.4674 3 18.3598 3 22.5C3 26.6402 4.6123 30.5326 7.5398 33.4602C10.4673 36.3879 14.3598 38 18.5 38C22.6402 38 26.5327 36.3878 29.4602 33.4602C32.3878 30.5327 34 26.6402 34 22.5C34 18.3598 32.3877 14.4674 29.4602 11.5398Z" fill="#269970"/>
<mask id="mask1_2_2" style="mask-type:luminance" maskUnits="userSpaceOnUse" x="8" y="12" width="22" height="22">
<path d="M29.5691 12.3121H8.31192V33.5693H29.5691V12.3121Z" fill="white"/>
</mask>
<g mask="url(#mask1_2_2)">
<path d="M18.9427 13.2001V32.6858" stroke="white" stroke-width="1.75" stroke-linecap="round" stroke-linejoin="round"/>
</g>
<mask id="mask2_2_2" style="mask-type:luminance" maskUnits="userSpaceOnUse" x="8" y="12" width="22" height="22">
<path d="M29.5691 12.3121H8.31192V33.5693H29.5691V12.3121Z" fill="white"/>
</mask>
<g mask="url(#mask2_2_2)">
<path d="M23.3716 16.7429H16.7287C15.9065 16.7429 15.1181 17.0696 14.5368 17.6509C13.9553 18.2323 13.6288 19.0208 13.6288 19.8429C13.6288 20.6651 13.9553 21.4536 14.5368 22.035C15.1181 22.6163 15.9065 22.943 16.7287 22.943H21.1573C21.9795 22.943 22.7679 23.2695 23.3494 23.8509C23.9307 24.4322 24.2573 25.2207 24.2573 26.043C24.2573 26.8651 23.9307 27.6536 23.3494 28.2349C22.7679 28.8163 21.9795 29.1429 21.1573 29.1429H13.6288" stroke="white" stroke-width="1.75" stroke-linecap="round" stroke-linejoin="round"/>
</g>
<path d="M55.8771 12.1818H59.1584V27.6506C59.1584 29.0497 58.8814 30.2464 58.3274 31.2408C57.7805 32.2351 57.0099 32.995 56.0156 33.5206C55.0213 34.0391 53.8565 34.2983 52.5213 34.2983C51.2926 34.2983 50.1882 34.0746 49.2081 33.6271C48.2351 33.1797 47.4645 32.5298 46.8963 31.6776C46.3352 30.8182 46.0547 29.7741 46.0547 28.5455H49.3253C49.3253 29.1491 49.4638 29.6712 49.7408 30.1115C50.0249 30.5518 50.4119 30.8963 50.902 31.1449C51.3991 31.3864 51.9673 31.5071 52.6065 31.5071C53.3026 31.5071 53.892 31.3615 54.375 31.0703C54.8651 30.772 55.2379 30.3352 55.4936 29.7599C55.7493 29.1847 55.8771 28.4815 55.8771 27.6506V12.1818ZM65.8567 12.1818L71.9292 29.9517H72.1742L78.2466 12.1818H81.8049L73.9533 34H70.15L62.2985 12.1818H65.8567ZM92.8951 12.1818H96.8901L103.836 29.142H104.092L111.038 12.1818H115.033V34H111.901V18.2116H111.698L105.264 33.968H102.664L96.2296 18.201H96.0272V34H92.8951V12.1818ZM126.456 34.3303C124.922 34.3303 123.583 33.9787 122.44 33.2756C121.296 32.5724 120.408 31.5888 119.776 30.3246C119.144 29.0604 118.828 27.5831 118.828 25.8928C118.828 24.1953 119.144 22.7109 119.776 21.4396C120.408 20.1683 121.296 19.1811 122.44 18.478C123.583 17.7749 124.922 17.4233 126.456 17.4233C127.99 17.4233 129.329 17.7749 130.472 18.478C131.616 19.1811 132.504 20.1683 133.136 21.4396C133.768 22.7109 134.084 24.1953 134.084 25.8928C134.084 27.5831 133.768 29.0604 133.136 30.3246C132.504 31.5888 131.616 32.5724 130.472 33.2756C129.329 33.9787 127.99 34.3303 126.456 34.3303ZM126.467 31.6562C127.461 31.6562 128.285 31.3935 128.938 30.8679C129.592 30.3423 130.075 29.6428 130.387 28.7692C130.707 27.8956 130.866 26.9332 130.866 25.8821C130.866 24.8381 130.707 23.8793 130.387 23.0057C130.075 22.125 129.592 21.4183 128.938 20.8857C128.285 20.353 127.461 20.0866 126.467 20.0866C125.465 20.0866 124.634 20.353 123.974 20.8857C123.32 21.4183 122.834 22.125 122.514 23.0057C122.202 23.8793 122.045 24.8381 122.045 25.8821C122.045 26.9332 122.202 27.8956 122.514 28.7692C122.834 29.6428 123.32 30.3423 123.974 30.8679C124.634 31.3935 125.465 31.6562 126.467 31.6562ZM140.825 24.2841V34H137.639V17.6364H140.697V20.2997H140.899C141.276 19.4332 141.865 18.7372 142.668 18.2116C143.477 17.6861 144.497 17.4233 145.725 17.4233C146.84 17.4233 147.817 17.6577 148.655 18.1264C149.493 18.5881 150.143 19.277 150.605 20.1932C151.066 21.1094 151.297 22.2422 151.297 23.5916V34H148.112V23.9751C148.112 22.7891 147.803 21.8622 147.185 21.1946C146.567 20.5199 145.718 20.1825 144.639 20.1825C143.9 20.1825 143.243 20.3423 142.668 20.6619C142.1 20.9815 141.649 21.4503 141.315 22.0682C140.988 22.679 140.825 23.4176 140.825 24.2841ZM162.622 34.3303C161.009 34.3303 159.621 33.9858 158.456 33.2969C157.298 32.6009 156.404 31.6243 155.771 30.3672C155.146 29.103 154.834 27.6222 154.834 25.9247C154.834 24.2486 155.146 22.7713 155.771 21.4929C156.404 20.2145 157.284 19.2166 158.414 18.4993C159.55 17.782 160.878 17.4233 162.398 17.4233C163.321 17.4233 164.216 17.576 165.083 17.8814C165.949 18.1868 166.727 18.6662 167.416 19.3196C168.105 19.973 168.648 20.8217 169.046 21.8658C169.443 22.9027 169.642 24.1634 169.642 25.6477V26.777H156.634V24.3906H166.521C166.521 23.5526 166.35 22.8104 166.009 22.1641C165.669 21.5107 165.189 20.9957 164.571 20.6193C163.96 20.2429 163.243 20.0547 162.419 20.0547C161.524 20.0547 160.743 20.2749 160.075 20.7152C159.415 21.1484 158.904 21.7166 158.541 22.4197C158.186 23.1158 158.009 23.8722 158.009 24.6889V26.5533C158.009 27.647 158.2 28.5774 158.584 29.3445C158.975 30.1115 159.518 30.6974 160.214 31.1023C160.91 31.5 161.723 31.6989 162.654 31.6989C163.257 31.6989 163.808 31.6136 164.305 31.4432C164.802 31.2656 165.232 31.0028 165.594 30.6548C165.956 30.3068 166.233 29.8771 166.425 29.3658L169.44 29.9091C169.198 30.7969 168.765 31.5746 168.14 32.2422C167.522 32.9027 166.744 33.4176 165.807 33.7869C164.877 34.1491 163.815 34.3303 162.622 34.3303ZM174.721 40.1364C174.245 40.1364 173.812 40.0973 173.422 40.0192C173.031 39.9482 172.74 39.87 172.548 39.7848L173.315 37.1747C173.897 37.331 174.416 37.3984 174.87 37.3771C175.325 37.3558 175.726 37.1854 176.074 36.8658C176.429 36.5462 176.742 36.0241 177.012 35.2997L177.406 34.2131L171.419 17.6364H174.828L178.972 30.3352H179.142L183.287 17.6364H186.706L179.963 36.1839C179.65 37.0362 179.252 37.7571 178.77 38.3466C178.287 38.9432 177.711 39.3906 177.044 39.6889C176.376 39.9872 175.602 40.1364 174.721 40.1364Z" fill="white"/>
</g>
</g>
<defs>
<clipPath id="clip0_2_2">
<rect width="190" height="42" fill="white"/>
</clipPath>
</defs>
</svg>
